<svg width="615" height="650" viewBox="0 0 615 650" fill="none" xmlns="http://www.w3.org/2000/svg">
<path d="M565.667 309.713C565.667 167.408 450.231 52.0464 307.834 52.0464C165.436 52.0464 50 167.408 50 309.713C50 452.018 165.436 567.379 307.834 567.379C450.231 567.379 565.667 452.018 565.667 309.713Z" fill="#7B4AE2" fill-opacity="0.2"/>
<g filter="url(#filter0_d_1706_72)">
<circle cx="85.8102" cy="468.98" r="35.8102" fill="#090E16"/>
</g>
<g clip-path="url(#clip0_1706_72)">
<path fill-rule="evenodd" clip-rule="evenodd" d="M79.8885 451.074C76.5939 451.074 73.9201 453.748 73.9201 457.043C73.9201 460.337 76.5939 463.011 79.8885 463.011C76.5939 463.011 73.9201 465.685 73.9201 468.98C73.9201 472.274 76.5939 474.948 79.8885 474.948C76.5939 474.948 73.9201 477.622 73.9201 480.916C73.9201 484.211 76.5939 486.885 79.8885 486.885C83.183 486.885 85.8568 484.211 85.8568 480.916L85.8568 468.98C85.8568 472.274 88.5307 474.948 91.8252 474.948C95.1198 474.948 97.7936 472.274 97.7936 468.98C97.7936 465.685 95.1198 463.011 91.8252 463.011C95.1198 463.011 97.7936 460.337 97.7936 457.043C97.7936 453.748 95.1198 451.074 91.8252 451.074H79.8885ZM91.8252 463.011H85.8568L85.8568 468.98C85.8568 465.685 88.5307 463.011 91.8252 463.011Z" fill="#7B4AE2" fill-opacity="0.5"/>
</g>
<g filter="url(#filter1_f_1706_72)">
<circle cx="309.624" cy="305.148" r="255.148" fill="#7B4AE2" fill-opacity="0.2"/>
</g>
<g filter="url(#filter2_i_1706_72)">
<path fill-rule="evenodd" clip-rule="evenodd" d="M262.636 404.465C299.391 424.056 340.608 421.88 372.901 404.463V447.383L373.266 447.373V472.573H262.636V404.465Z" fill="#BB7D52"/>
<path fill-rule="evenodd" clip-rule="evenodd" d="M262.635 440.226C299.39 459.819 340.607 457.642 372.901 440.226V467.595L397.734 466.977L398.042 466.988C398.042 532.959 240.326 542.834 240.326 466.889L240.942 466.861L262.635 466.972V440.226Z" fill="#D08B5B"/>
<path fill-rule="evenodd" clip-rule="evenodd" d="M198.067 169.098C285.781 113.249 397.996 133.109 435.909 169.937C446.87 196.314 447.645 221.755 444.42 249.065C451.825 243.751 460.631 244.967 467.569 249.916C470.38 272.577 477.909 317.405 444.169 319.35C432.553 463.956 219.72 481.955 190.95 319.823C157.51 318.669 166.527 273.364 168.616 251.608C176.639 245.504 185.801 248.576 191.487 251.307L198.067 169.098Z" fill="#D08B5B"/>
<path fill-rule="evenodd" clip-rule="evenodd" d="M185.039 230.339C185.499 231.604 184.002 232.87 179.511 235.172C170.215 239.815 169.4 240.78 169.377 248.053V248.405C169.377 258.185 170.874 260.715 177.322 261.637C183.887 262.558 188.034 264.053 189.186 265.894C189.645 266.7 190.107 270.382 190.107 274.179C190.107 282.349 192.64 293.856 195.75 299.839C204.502 316.87 227.304 325.5 254.943 322.278C268.533 320.551 276.479 317.905 285.116 312.151C298.015 303.522 304.003 292.475 304.924 275.1C305.616 264.513 305.616 264.513 309.071 263.362C313.562 261.752 324.733 261.752 329.34 263.362C332.909 264.628 332.909 264.628 332.909 272.799C332.909 282.234 335.328 293.511 338.552 299.84C347.305 316.87 370.107 325.5 397.631 322.278C411.336 320.552 419.282 317.905 427.92 312.153C440.818 303.523 446.807 292.131 447.958 274.295C448.764 262.558 448.189 263.133 460.857 261.522C467.305 260.717 468.803 258.185 468.803 248.289C468.803 240.464 467.536 238.97 456.826 234.367L450.376 231.604L440.357 228.499L432.987 226.888C428.956 226.082 423.774 225.391 421.585 225.276C419.282 225.276 413.525 223.204 407.767 220.329C398.207 215.61 397.747 215.495 386.461 215.495C373.563 215.495 364.464 218.142 357.093 223.896C354.906 225.621 350.299 227.807 347.074 228.613C343.734 229.419 337.516 231.605 333.255 233.446C322.084 238.164 316.326 237.934 302.046 232.18C295.827 229.65 289.953 227.577 289.148 227.577C288.34 227.577 285.692 225.967 283.274 224.011C275.673 218.027 267.151 215.495 254.022 215.495C242.851 215.495 242.161 215.726 232.257 220.444C225.577 223.666 220.394 225.276 217.285 225.276C214.75 225.391 209.223 226.082 205.077 227.003L185.039 230.339ZM277.17 245.183C290.988 249.67 295.249 255.768 295.365 271.187C295.48 279.358 295.02 282.005 292.832 286.491C285.232 302.026 263.58 310.772 237.898 308.815C218.206 307.204 208.071 301.681 202.659 289.484C199.204 281.544 198.743 262.558 201.967 256.689C204.962 251.165 210.721 247.369 220.163 244.837C227.534 242.881 231.565 242.651 249.991 242.881C265.883 243.226 272.794 243.802 277.17 245.183ZM419.972 245.183C433.793 249.67 438.053 255.768 438.169 271.187C438.284 279.358 437.823 282.005 435.635 286.491C428.034 302.026 406.383 310.772 380.701 308.815C361.009 307.204 350.874 301.681 345.461 289.484C342.006 281.544 341.546 262.558 344.77 256.689C347.765 251.165 353.523 247.369 362.966 244.837C370.337 242.881 374.367 242.651 392.793 242.881C408.686 243.226 415.596 243.802 419.972 245.183Z" fill="#A66F49"/>
<path fill-rule="evenodd" clip-rule="evenodd" d="M288.225 56.6225L280.97 61.3407L277.284 57.7733C271.526 52.1353 268.762 53.1709 264.386 62.4914C261.737 68.2445 258.398 68.9354 252.64 65.1377C250.336 63.527 247.457 62.146 246.306 62.146C243.772 62.146 241.353 66.0582 240.317 71.2362C239.511 75.4938 236.747 79.406 234.444 79.406C233.638 79.406 230.643 78.3704 227.765 77.1045C223.388 75.1484 222.006 75.0333 219.588 76.0689C216.824 77.3348 216.593 78.025 216.593 85.6197C216.593 91.1432 215.787 95.4008 214.29 98.6227C212.102 103.455 211.987 103.571 206.574 103.571C197.591 103.571 193.33 108.058 197.706 113.006C200.01 115.422 198.512 117.954 194.022 118.99C185.729 121.061 183.311 126.354 187.802 131.992C190.912 136.019 190.797 136.595 185.844 138.897C180.662 141.428 179.857 144.305 183.196 147.872C185.729 150.634 185.729 150.748 184.347 165.938C182.966 180.666 183.426 221.746 185.039 226.003C185.499 227.269 184.002 228.535 179.511 230.836C170.067 235.554 169.377 236.474 169.377 244.069C169.377 253.85 170.874 256.381 177.323 257.302C183.887 258.222 188.033 259.718 189.185 261.559C189.645 262.365 190.106 266.047 190.106 269.844C190.106 278.014 192.64 289.521 195.749 295.504C204.502 312.535 227.304 321.164 254.944 317.943C268.533 316.217 276.479 313.57 285.116 307.817C298.015 299.187 304.003 288.14 304.925 270.765C305.616 260.178 305.616 260.178 309.071 259.028C313.562 257.417 324.733 257.417 329.339 259.028C332.91 260.294 332.91 260.294 332.91 268.464C332.91 277.9 335.328 289.176 338.553 295.505C347.305 312.535 370.107 321.165 397.631 317.944C411.336 316.217 419.282 313.571 427.92 307.818C440.818 299.188 446.807 287.796 447.958 269.96C448.764 258.223 448.189 258.799 460.857 257.187C467.306 256.382 468.803 253.85 468.803 243.955C468.803 236.13 467.536 234.634 456.826 230.032L450.377 227.27V215.763C450.261 196.086 447.498 182.163 442.66 177.675C441.048 176.18 437.478 173.878 434.599 172.497C430.108 170.311 429.187 170.196 427.805 171.692C426.423 173.073 426.768 174.339 430.223 181.243C434.484 189.758 438.284 204.141 439.551 216.569L440.357 224.164L432.987 222.552C428.956 221.747 423.774 221.057 421.585 220.942C419.282 220.942 413.524 218.87 407.766 215.994C398.207 211.276 397.747 211.16 386.461 211.16C373.562 211.16 364.464 213.807 357.094 219.56C354.906 221.287 350.299 223.473 347.075 224.279C343.735 225.084 337.516 227.27 333.255 229.111C322.084 233.829 316.326 233.599 302.045 227.845C295.827 225.314 289.953 223.243 289.147 223.243C288.341 223.243 285.692 221.632 283.274 219.676C275.673 213.692 267.151 211.16 254.022 211.16C242.851 211.16 242.16 211.391 232.256 216.108C225.576 219.33 220.394 220.942 217.285 220.942C214.751 221.057 209.223 221.747 205.078 222.667C193.331 225.199 194.252 226.695 195.173 207.363C195.864 190.794 198.052 176.756 200.586 171.922C203.465 166.514 226.267 154.892 248.84 147.298C276.825 137.977 308.264 134.41 343.735 136.827C374.138 138.783 382.2 141.314 415.828 159.38C427.574 165.709 438.515 170.772 441.048 171.117C445.195 171.692 445.54 171.462 446.806 168.009C449.571 160.07 447.382 140.048 442.776 130.958C439.321 124.284 439.091 121.752 441.048 114.848C442.43 110.015 442.43 108.98 440.703 106.448C439.091 104.032 437.939 103.572 433.333 103.572C430.338 103.687 425.732 104.147 423.083 104.607C418.361 105.528 418.246 105.528 418.822 102.536C421.125 91.2596 418.361 88.7278 407.19 91.6044C403.62 92.5249 400.28 93.1006 400.05 92.7551C399.705 92.4104 400.05 88.9581 400.856 85.1611C402.237 78.9474 402.123 77.9118 400.511 76.1853C398.783 74.5747 397.747 74.5747 391.067 75.8406C380.357 78.0269 376.326 76.9913 372.41 71.0073C368.38 65.139 364.694 63.0678 360.894 64.5633C358.821 65.3686 356.633 65.0239 352.487 63.1829C348.11 61.342 345.577 60.8814 341.662 61.4565C337.631 62.1473 335.443 61.6867 331.642 59.7307C327.727 57.7746 325.539 57.4292 320.817 58.0042C315.75 58.5799 313.907 58.1193 308.034 55.2428C304.349 53.4018 299.973 51.9057 298.36 51.7905C296.748 51.7905 292.256 53.9769 288.226 56.6238L288.225 56.6225ZM277.169 240.847C290.989 245.335 295.25 251.434 295.365 266.853C295.481 275.022 295.02 277.669 292.832 282.157C285.231 297.691 263.58 306.436 237.898 304.48C218.206 302.869 208.071 297.346 202.659 285.148C199.204 277.209 198.743 258.222 201.967 252.354C204.962 246.831 210.72 243.034 220.163 240.502C227.534 238.546 231.565 238.315 249.991 238.546C265.883 238.891 272.793 239.466 277.169 240.847ZM419.972 240.847C433.792 245.335 438.053 251.434 438.168 266.853C438.284 275.022 437.823 277.669 435.635 282.157C428.034 297.691 406.383 306.436 380.701 304.48C361.009 302.869 350.874 297.346 345.462 285.148C342.007 277.209 341.546 258.222 344.77 252.354C347.765 246.831 353.523 243.034 362.966 240.502C370.337 238.546 374.368 238.315 392.794 238.546C408.686 238.891 415.596 239.466 419.972 240.847Z" fill="#2C1B18"/>
<path fill-rule="evenodd" clip-rule="evenodd" d="M240.087 254.771C233.983 257.647 226.957 264.897 226.957 268.349C226.957 270.995 228.8 270.995 232.37 268.119C241.698 260.754 261.507 260.754 271.641 268.003C273.599 269.269 275.672 270.419 276.363 270.419C278.781 270.419 277.63 266.277 273.945 261.904C269.108 255.921 260.471 252.009 252.293 252.009C248.032 252.009 244.002 252.929 240.087 254.77V254.771Z" fill="#533824"/>
<path fill-rule="evenodd" clip-rule="evenodd" d="M373.677 254.771C367.573 257.647 360.548 264.897 360.548 268.349C360.548 270.995 362.391 270.995 365.961 268.119C375.289 260.754 395.097 260.754 405.232 268.003C407.189 269.269 409.262 270.419 409.954 270.419C412.372 270.419 411.22 266.277 407.535 261.904C402.698 255.921 394.061 252.009 385.884 252.009C381.623 252.009 377.593 252.929 373.677 254.77L373.677 254.771Z" fill="#533824"/>
<path fill-rule="evenodd" clip-rule="evenodd" d="M292.256 309.773C293.523 314.721 297.208 318.634 303.657 321.741C308.84 324.272 311.488 324.848 319.089 324.848C326.69 324.848 329.339 324.272 334.521 321.741C340.97 318.634 344.655 314.722 345.922 309.773L346.498 307.242H319.089H291.68L292.256 309.773Z" fill="#AF754C"/>
<path fill-rule="evenodd" clip-rule="evenodd" d="M185.039 226.003C185.499 227.269 184.002 228.535 179.511 230.836C170.215 235.479 169.4 236.446 169.377 243.718V244.07C169.377 253.85 170.874 256.381 177.322 257.302C183.887 258.222 188.034 259.718 189.186 261.559C189.645 262.365 190.107 266.047 190.107 269.844C190.107 278.014 192.64 289.522 195.75 295.504C204.502 312.535 227.304 321.164 254.943 317.943C268.533 316.216 276.479 313.57 285.116 307.817C298.015 299.187 304.003 288.141 304.924 270.765C305.616 260.178 305.616 260.178 309.071 259.028C313.562 257.418 324.733 257.418 329.34 259.028C332.909 260.293 332.909 260.293 332.909 268.464C332.909 277.899 335.328 289.176 338.552 295.506C347.305 312.535 370.107 321.164 397.631 317.943C411.336 316.217 419.282 313.57 427.92 307.818C440.818 299.188 446.807 287.796 447.958 269.96C448.764 258.222 448.189 258.799 460.857 257.187C467.305 256.382 468.803 253.85 468.803 243.954C468.803 236.13 467.536 234.635 456.826 230.032L450.376 227.269L440.357 224.164L432.987 222.552C428.956 221.747 423.774 221.056 421.585 220.941C419.282 220.941 413.525 218.87 407.767 215.994C398.207 211.276 397.747 211.16 386.461 211.16C373.563 211.16 364.464 213.807 357.093 219.561C354.906 221.286 350.299 223.473 347.074 224.278C343.734 225.084 337.516 227.27 333.255 229.111C322.084 233.829 316.326 233.599 302.046 227.845C295.827 225.315 289.953 223.242 289.148 223.242C288.34 223.242 285.692 221.632 283.274 219.676C275.673 213.692 267.151 211.16 254.022 211.16C242.851 211.16 242.161 211.391 232.257 216.109C225.577 219.331 220.394 220.941 217.285 220.941C214.75 221.056 209.223 221.747 205.077 222.667L185.039 226.003ZM277.17 240.848C290.988 245.336 295.249 251.434 295.365 266.853C295.48 275.023 295.02 277.67 292.832 282.156C285.232 297.691 263.58 306.437 237.898 304.479C218.206 302.869 208.071 297.346 202.659 285.149C199.204 277.209 198.743 258.222 201.967 252.354C204.962 246.83 210.721 243.034 220.163 240.502C227.534 238.546 231.565 238.316 249.991 238.546C265.883 238.89 272.794 239.467 277.17 240.848ZM419.972 240.848C433.793 245.336 438.053 251.434 438.169 266.853C438.284 275.023 437.823 277.67 435.635 282.156C428.034 297.691 406.383 306.437 380.701 304.479C361.009 302.869 350.874 297.346 345.461 285.149C342.006 277.209 341.546 258.222 344.77 252.354C347.765 246.83 353.523 243.034 362.966 240.502C370.337 238.546 374.367 238.316 392.793 238.546C408.686 238.89 415.596 239.467 419.972 240.848Z" fill="#090E16"/>
<path fill-rule="evenodd" clip-rule="evenodd" d="M286.958 356.03C288.455 365.581 295.711 375.362 304.694 379.965C311.258 383.417 323.35 384.107 330.26 381.461C340.625 377.434 349.608 366.617 351.22 356.03H286.958Z" fill="#3E291B"/>
<path d="M359.721 578.002L367.116 571.994C368.83 570.602 371.349 570.861 372.742 572.574C374.136 574.286 373.876 576.802 372.162 578.195L368.583 581.102L394.568 602.978C396.281 604.37 396.541 606.887 395.148 608.599C394.357 609.57 393.205 610.074 392.043 610.074C391.156 610.074 390.263 609.781 389.522 609.179L359.721 584.202C358.787 583.443 358.245 582.305 358.245 581.102C358.245 579.899 358.787 578.76 359.721 578.002Z" fill="#7B4AE2"/>
<path d="M392.56 541.293C394.683 541.31 396.391 543.043 396.374 545.165L396.044 606.263C396.027 608.384 394.291 610.091 392.168 610.074C391.63 610.07 391.12 609.955 390.656 609.752C389.291 609.154 388.341 607.786 388.354 606.201L388.685 545.104C388.702 542.982 390.437 541.276 392.56 541.293Z" fill="#7B4AE2"/>
<path d="M409.437 583.321L412.169 581.102L402.441 573.198C400.727 571.806 400.468 569.29 401.861 567.577C403.254 565.865 405.773 565.606 407.487 566.998L421.03 578.002C421.965 578.76 422.507 579.899 422.507 581.102C422.507 582.305 421.965 583.443 421.03 584.202L414.483 589.522C413.742 590.123 412.849 590.417 411.963 590.417C410.8 590.417 409.648 589.913 408.857 588.942C407.464 587.23 407.724 584.713 409.437 583.321Z" fill="#C83267"/>
<path fill-rule="evenodd" clip-rule="evenodd" d="M239.624 466.93C205.652 470.236 174.789 482.889 149.107 503.977C127.008 522.046 120.843 536.407 104.663 556.86C137.629 591.033 181.958 619.988 230.298 635.98C262.543 646.58 284.54 650 319.088 650C353.639 650 375.634 646.58 407.881 635.98C456.649 620.396 497.728 594.859 534.759 558.205C509.396 525.495 498.957 504.057 458.091 483.914C440.931 475.365 420.778 469.21 405.346 467.614L398.078 466.959L397.733 466.952L396.939 472.402C393.485 498.392 360.895 517.542 320.241 517.542C279.589 517.542 247.573 498.619 243.426 472.288C242.621 467.045 242.274 466.588 239.626 466.93H239.624Z" fill="#090E16"/>
<path fill-rule="evenodd" clip-rule="evenodd" d="M260.698 420.613L260.218 420.462C258.905 420.049 265.355 417.106 267.641 416.013C274.36 412.803 283.123 413.459 294.077 418.056C298.306 419.302 304.422 422.637 309.34 424.331C320.174 428.16 325.709 425.962 335.484 421.778L344.029 418.056C354.983 413.459 363.746 412.803 370.465 416.013C372.718 417.077 374.943 418.457 376.637 419.932L377.147 420.376C357.539 435.321 294.686 442.75 260.698 420.613Z" fill="#2C1B18" fill-opacity="0.501961"/>
<path d="M386.489 560.392L390.339 557.264C391.231 556.539 392.542 556.675 393.267 557.566C393.993 558.457 393.858 559.768 392.965 560.492L391.103 562.006L404.628 573.396C405.521 574.12 405.656 575.431 404.93 576.322C404.519 576.828 403.919 577.09 403.314 577.09C402.853 577.09 402.388 576.938 402.002 576.624L386.489 563.62C386.003 563.225 385.721 562.632 385.721 562.006C385.721 561.38 386.003 560.787 386.489 560.392Z" fill="white"/>
<path d="M403.584 541.28C404.689 541.289 405.578 542.191 405.569 543.296L405.397 575.106C405.388 576.211 404.485 577.099 403.379 577.09C403.099 577.088 402.834 577.028 402.592 576.923C401.882 576.611 401.387 575.899 401.394 575.074L401.566 543.264C401.575 542.16 402.478 541.271 403.584 541.28Z" fill="white"/>
<path d="M412.369 563.161L413.791 562.006L408.727 557.891C407.835 557.167 407.7 555.856 408.425 554.965C409.15 554.073 410.461 553.938 411.353 554.663L418.404 560.392C418.89 560.787 419.172 561.38 419.172 562.006C419.172 562.632 418.89 563.225 418.404 563.62L414.996 566.39C414.609 566.703 414.145 566.856 413.684 566.856C413.078 566.856 412.478 566.594 412.067 566.088C411.342 565.196 411.477 563.886 412.369 563.161Z" fill="#7B4AE2"/>
</g>
<g clip-path="url(#clip1_1706_72)">
<path fill-rule="evenodd" clip-rule="evenodd" d="M524.75 301.75C524.75 297.332 528.332 293.75 532.75 293.75H579.25C583.668 293.75 587.25 297.332 587.25 301.75V348.25C587.25 352.668 583.668 356.25 579.25 356.25H532.75C528.332 356.25 524.75 352.668 524.75 348.25V301.75ZM541.184 345.979C541.184 345.98 541.184 345.98 541.184 345.98L541.184 345.979C542.568 348.916 545.295 351.349 549.994 351.349C555.196 351.349 558.762 348.58 558.762 342.497V325.38C558.762 323.758 557.447 322.444 555.825 322.444C554.203 322.444 552.889 323.758 552.889 325.38V342.414C552.889 345.35 551.672 346.105 549.742 346.105C546.935 346.105 543.98 344.287 541.579 345.741L541.184 345.979L541.184 345.979C541.184 345.979 541.184 345.979 541.184 345.979ZM568.506 344.744C567.318 343.731 565.657 343.205 564.306 343.988C562.985 344.752 562.462 346.452 563.471 347.597C565.441 349.83 568.482 351.35 572.65 351.35C578.23 351.35 582.384 348.455 582.384 343.169C582.384 338.26 579.573 336.079 574.58 333.939L573.112 333.31C570.595 332.219 569.504 331.505 569.504 329.743C569.504 328.317 570.595 327.226 572.315 327.226C573.031 327.226 573.641 327.356 574.182 327.646C575.557 328.38 577.198 329.032 578.51 328.19C579.718 327.414 580.148 325.785 579.165 324.738C577.406 322.866 575.166 322.108 572.315 322.108C567.07 322.108 563.714 325.464 563.714 329.869C563.714 334.652 566.525 336.918 570.763 338.721L572.231 339.351C574.916 340.525 576.51 341.239 576.51 343.252C576.51 344.931 574.958 346.147 572.525 346.147C570.801 346.147 569.523 345.612 568.506 344.744Z" fill="#7B4AE2" fill-opacity="0.5"/>
</g>
<path d="M492.932 175.962L470.82 169.824L465.843 114H520.089L515.106 169.815L492.932 175.962Z" stroke="#7B4AE2" stroke-opacity="0.5" stroke-width="2"/>
<path fill-rule="evenodd" clip-rule="evenodd" d="M507.425 160.763L507.531 159.57L509.191 140.971L509.363 139.074H483.618L482.972 131.839H492.954H509.983L510.148 130.251L510.47 126.67L510.639 124.775H492.954H475.251L475.42 126.67L477.157 146.138H492.966H501.641L500.821 155.301L492.965 157.421L485.067 155.305L484.564 149.671H480.741H477.472L478.462 160.763L492.933 164.781L507.425 160.763Z" fill="#7B4AE2" fill-opacity="0.5"/>
<path fill-rule="evenodd" clip-rule="evenodd" d="M71.2091 236.163C70.1919 236.799 68.6593 237.829 67.4737 238.95C65.5273 240.788 65.12 243.338 66.1468 243.934C67.0966 244.484 69.3141 243.829 70.9011 242.098C72.5667 240.281 73.2535 237.977 72.5441 235.361C72.4608 235.411 72.379 235.461 72.2987 235.507L72.3004 235.511L72.1928 235.572C71.7787 235.819 71.4403 236.023 71.2091 236.163ZM99.7934 235.337C99.2172 236.59 99.1883 236.992 99.3633 237.118C100.199 236.817 101.583 236.094 101.594 234.154C101.595 233.863 101.531 233.552 101.428 233.226C100.535 234.017 100.019 234.846 99.7934 235.337ZM108.764 231.552C106.531 231.291 104.788 231.604 103.436 232.168C103.686 232.82 103.879 233.499 103.906 234.183C103.968 235.684 102.935 236.795 101.858 237.588C101.229 238.051 100.56 238.359 99.9984 238.545C99.5493 238.735 98.9523 238.93 98.5286 238.844C97.5945 238.654 97.0973 237.824 97.7328 235.994C98.076 235.004 99.0661 233.496 100.664 232.197C100.3 231.447 99.894 230.683 99.6871 229.981C99.2793 228.597 99.1562 227.761 99.1562 227.761C99.1562 227.761 97.8389 230.492 96.1394 232.976C96.0414 233.12 95.9436 233.261 95.8456 233.403C96.1794 234.178 96.4424 234.999 96.478 235.826C96.5406 237.327 95.8907 238.462 94.8122 239.253C94.2284 239.684 93.6056 239.981 93.0712 240.17C92.7295 240.319 92.0346 240.565 91.0462 240.631C90.5057 240.668 89.9857 240.634 89.6955 240.414C89.2958 240.113 89.2477 239.74 89.4546 239.231C89.6296 238.799 90.9388 237.304 92.0365 235.996C92.3397 235.634 92.6285 235.265 92.8868 234.923L92.8805 234.909C92.8805 234.909 93.0793 234.652 93.402 234.204C93.0008 233.34 92.4922 232.441 92.2531 231.625C91.8453 230.242 91.722 229.405 91.722 229.405C91.722 229.405 90.3867 232.828 88.9957 235.561C87.9192 237.677 87.2002 238.96 86.8762 239.522L86.8729 239.544C86.8729 239.544 86.8246 239.626 86.7412 239.755L86.6789 239.859L86.6771 239.849C86.316 240.382 85.5057 241.427 84.7003 241.427C82.4892 241.427 83.3009 236.937 83.3009 236.937C83.3009 236.937 82.6545 238.6 81.9259 240.027C81.3324 241.191 80.7917 242.178 79.6091 242.178C79.2689 242.178 78.7297 242.168 78.2819 241.742C77.2663 240.777 76.4897 238.327 76.642 236.429C76.7719 234.816 77.0206 233.698 77.3608 232.766C76.7542 233.096 76.0531 233.488 75.3391 233.907L74.2414 234.554L74.2768 234.618C75.1849 236.375 75.4272 240.223 73.4471 243.178C71.4672 246.133 67.7815 247.932 64.1905 246.933C63.0318 246.61 61.2813 244.213 62.7911 240.872C64.1229 237.926 69.4453 235.14 70.8479 234.445L71.2329 234.233C68.4364 231.786 61.453 228.485 60.4744 223.415C60.1983 221.987 60.8674 218.574 65.0585 214.65C68.5836 211.351 73.4874 208.823 78.0173 207.213C85.6276 204.508 93.6684 206.103 94.9054 210.956C96.1217 215.727 91.9821 221.435 86.6804 223.487C81.9469 225.319 78.0332 225.028 76.4254 224.5C74.5977 223.9 73.5259 222.694 73.2645 222.013C73.1617 221.747 72.9849 221.299 73.2645 221.145C73.436 221.05 73.5049 221.072 73.9638 221.58C74.4004 222.061 76.1557 223.354 79.4901 222.98C88.2401 221.999 93.5109 215.196 91.8453 211.535C90.679 208.973 83.9349 207.817 75.5091 212.018C65.2236 217.147 64.6654 221.374 64.5772 222.98C64.3364 227.397 70.0246 229.72 73.1024 233.005L73.2209 233.135C73.7969 232.817 74.4052 232.481 75.002 232.154C76.5538 231.301 78.0173 230.502 78.6991 230.129C79.7824 228.554 81.9804 226.817 83.5674 226.817C86.1042 226.817 85.233 230.463 85.233 230.463C85.233 230.463 85.2844 230.296 85.3533 230.295C85.4255 230.293 85.7048 229.814 86.4879 230.1C87.2934 230.396 87.1103 230.961 87.1153 231.019C87.1249 231.131 86.1637 234.373 85.7643 236.452C85.5731 237.444 85.6838 238.167 85.7402 238.167C85.8188 238.167 85.9793 237.915 86.1285 237.643L86.1252 237.635C86.1252 237.635 86.2375 237.43 86.4254 237.061L86.4623 236.983L86.4639 236.987C86.6855 236.553 86.9965 235.916 87.3559 235.126C88.0603 233.573 90.7479 227.58 90.9758 226.917C91.2035 226.254 91.3223 225.568 91.4347 225.274C91.5454 224.98 92.4955 224.759 93.6056 224.767C94.716 224.775 94.8287 225.248 94.8363 225.346C94.8444 225.444 94.3085 226.759 94.1849 227.689C94.063 228.618 94.1803 229.082 94.2813 229.863C94.3472 230.373 94.6663 231.02 95.0437 231.754C96.1926 229.875 98.214 226.282 98.4083 225.276C98.5413 224.587 98.7548 223.927 98.8672 223.633C98.9794 223.339 99.9279 223.118 101.038 223.126C102.148 223.134 102.261 223.607 102.269 223.705C102.277 223.803 101.739 225.118 101.617 226.048C101.495 226.976 101.613 227.442 101.714 228.222C101.8 228.89 102.317 229.787 102.829 230.808C104.226 230.119 105.871 229.657 107.797 229.647C108.594 229.643 109.52 229.723 109.998 229.872V214.512C109.998 213.428 109.443 212.429 108.504 211.888L83.4473 197.406C82.5104 196.865 81.363 196.865 80.4259 197.406L55.4378 211.881C54.5007 212.423 54 213.423 54 214.505V243.483C54 244.565 54.5038 245.565 55.4394 246.106L80.4677 260.593C81.4046 261.136 82.5408 261.136 83.4777 260.593L108.517 246.106C109.454 245.563 110 244.564 110 243.483V231.772C109.682 231.678 109.217 231.604 108.764 231.552ZM81.8073 230.034C81.2699 230.636 80.3537 232.189 79.9252 233.488C79.0732 236.068 79.4422 238.69 80.0455 238.847C80.7499 239.032 81.9053 235.583 82.4585 234.234C82.8053 233.39 84.1532 229.641 83.8579 229.14C83.6273 228.748 82.6723 229.065 81.8073 230.034ZM91.5555 238.73C91.5555 238.73 91.3855 238.891 91.459 238.935C91.5586 238.995 91.7736 238.918 92.0079 238.796C92.6707 238.378 94.158 237.338 94.1612 235.798C94.1612 235.753 94.1595 235.71 94.1564 235.663C93.8115 236.116 93.4936 236.519 93.2193 236.861C92.7507 237.444 91.5555 238.73 91.5555 238.73Z" fill="#7B4AE2" fill-opacity="0.5"/>
<defs>
<filter id="filter0_d_1706_72" x="0" y="387.169" width="171.62" height="171.62" filterUnits="userSpaceOnUse" color-interpolation-filters="sRGB">
<feFlood flood-opacity="0" result="BackgroundImageFix"/>
<feColorMatrix in="SourceAlpha" type="matrix" values="0 0 0 0 0 0 0 0 0 0 0 0 0 0 0 0 0 0 127 0" result="hardAlpha"/>
<feOffset dy="4"/>
<feGaussianBlur stdDeviation="25"/>
<feComposite in2="hardAlpha" operator="out"/>
<feColorMatrix type="matrix" values="0 0 0 0 0 0 0 0 0 0 0 0 0 0 0 0 0 0 0.5 0"/>
<feBlend mode="normal" in2="BackgroundImageFix" result="effect1_dropShadow_1706_72"/>
<feBlend mode="normal" in="SourceGraphic" in2="effect1_dropShadow_1706_72" result="shape"/>
</filter>
<filter id="filter1_f_1706_72" x="4.47626" y="0" width="610.296" height="610.296" filterUnits="userSpaceOnUse" color-interpolation-filters="sRGB">
<feFlood flood-opacity="0" result="BackgroundImageFix"/>
<feBlend mode="normal" in="SourceGraphic" in2="BackgroundImageFix" result="shape"/>
<feGaussianBlur stdDeviation="25" result="effect1_foregroundBlur_1706_72"/>
</filter>
<filter id="filter2_i_1706_72" x="104.663" y="51.7905" width="430.095" height="602.209" filterUnits="userSpaceOnUse" color-interpolation-filters="sRGB">
<feFlood flood-opacity="0" result="BackgroundImageFix"/>
<feBlend mode="normal" in="SourceGraphic" in2="BackgroundImageFix" result="shape"/>
<feColorMatrix in="SourceAlpha" type="matrix" values="0 0 0 0 0 0 0 0 0 0 0 0 0 0 0 0 0 0 127 0" result="hardAlpha"/>
<feOffset dy="4"/>
<feGaussianBlur stdDeviation="2"/>
<feComposite in2="hardAlpha" operator="arithmetic" k2="-1" k3="1"/>
<feColorMatrix type="matrix" values="0 0 0 0 0 0 0 0 0 0 0 0 0 0 0 0 0 0 0.25 0"/>
<feBlend mode="normal" in2="shape" result="effect1_innerShadow_1706_72"/>
</filter>
<clipPath id="clip0_1706_72">
<rect width="35.8102" height="35.8102" fill="white" transform="translate(67.9051 451.074)"/>
</clipPath>
<clipPath id="clip1_1706_72">
<rect x="524" y="293" width="64" height="64" rx="8" fill="white"/>
</clipPath>
</defs>
</svg>
