<svg width="19" height="22" viewBox="0 0 19 22" fill="none" xmlns="http://www.w3.org/2000/svg">
<path d="M17.7182 10.2789L2.72725 1.1114C2.60105 1.03355 2.45637 0.990787 2.30814 0.987508C2.1599 0.98423 2.01347 1.02056 1.88396 1.09275C1.75444 1.16494 1.64653 1.27037 1.57136 1.39817C1.49618 1.52598 1.45646 1.67152 1.4563 1.8198V20.1548C1.45646 20.3031 1.49618 20.4486 1.57136 20.5764C1.64653 20.7042 1.75444 20.8097 1.88396 20.8819C2.01347 20.9541 2.1599 20.9904 2.30814 20.9871C2.45637 20.9838 2.60105 20.9411 2.72725 20.8632L17.7182 11.6957C17.8413 11.6229 17.9433 11.5193 18.0142 11.3951C18.085 11.2709 18.1223 11.1303 18.1223 10.9873C18.1223 10.8443 18.085 10.7038 18.0142 10.5795C17.9433 10.4553 17.8413 10.3517 17.7182 10.2789V10.2789Z" stroke="#7B4AE2" stroke-opacity="0.5" stroke-linecap="round" stroke-linejoin="round"/>
</svg>
